<?xml version="1.0" encoding="utf-8"?>
<!-- Generator: Adobe Illustrator 24.0.0, SVG Export Plug-In . SVG Version: 6.00 Build 0)  -->
<svg version="1.1" id="Layer_1" xmlns="http://www.w3.org/2000/svg" xmlns:xlink="http://www.w3.org/1999/xlink" x="0px" y="0px"
	 viewBox="0 0 296.9 83.2" style="enable-background:new 0 0 296.9 83.2;" xml:space="preserve">
<style type="text/css">
	.st0{fill:#EC6A2F;}
	.st1{fill:#FFFFFF;}
	.st2{fill:#EB6916;}
</style>
<g>
	<path class="st0" d="M101.8,21.6c1.8,0,3.3,1.5,3.3,3.3c0,1.8-1.5,3.3-3.3,3.3c-1.8,0-3.3-1.5-3.3-3.3
		C98.5,23.1,100,21.6,101.8,21.6z"/>
	<path class="st1" d="M104.6,31.5v20.3H99V31.5H104.6z"/>
	<path class="st1" d="M121.1,26.7v25.2h-5.9V26.7h-6.8v-5.1h19.5v5.1H121.1z"/>
	<path class="st1" d="M142.2,32.2h5.5v19.6h-5.5v-2.5c-2,2.9-4.6,3.2-6,3.2c-6,0-10-4.7-10-10.5c0-5.8,3.9-10.4,9.7-10.4
		c1.5,0,4.4,0.3,6.3,3.2V32.2z M131.9,42c0,3.1,2.3,5.6,5.4,5.6c3.2,0,5.4-2.4,5.4-5.6c0-3.1-2.3-5.5-5.4-5.5
		C134.2,36.5,131.9,38.9,131.9,42z"/>
	<path class="st1" d="M153,32.2h5.5v2.9c0.9-1.7,2-2.5,2.4-2.7c0.9-0.5,2-0.9,3.3-0.9c1,0,1.7,0.2,2.4,0.5l-0.7,5.2
		c-0.7-0.5-1.5-0.7-2.6-0.7c-1,0-2.6,0.2-3.7,1.6c-1,1.3-1.1,3-1.1,4.4v9.4H153V32.2z"/>
	<path class="st1" d="M184.3,32.2h5.5v18.9c0,2.4,0,5.2-2.2,7.8c-2,2.2-4.9,3.4-8.2,3.4c-5.5,0-9.9-3.1-10.6-8.2h6
		c0.4,2.2,2.2,3.5,4.6,3.5c4.8,0,4.9-4.4,4.9-5.5v-2.9c-1.9,2.9-4.6,3.3-6,3.3c-6,0-9.9-4.7-9.9-10.5c0-5.5,3.7-10.4,9.8-10.4
		c3.7,0,5.4,2,6.2,3.2V32.2z M174.1,42c0,3.1,2.3,5.6,5.4,5.6c3.2,0,5.4-2.4,5.4-5.6c0-3.1-2.3-5.5-5.4-5.5
		C176.3,36.5,174.1,38.9,174.1,42z"/>
	<path class="st1" d="M214.4,46.3c-0.6,1.4-2.8,6.1-9.7,6.1c-3.2,0-5.6-0.9-7.5-2.8c-2.2-2-3.1-4.6-3.1-7.7c0-3.9,1.6-6.3,3-7.7
		c2.3-2.3,5-2.8,7.4-2.8c4,0,6.3,1.6,7.7,3.2c2.1,2.5,2.4,5.6,2.4,7.7v0.5h-14.7c0,1.2,0.3,2.4,1,3.3c0.6,0.8,1.8,1.9,3.9,1.9
		c2.1,0,3.7-1,4.6-2.6L214.4,46.3z M209.3,39.4c-0.5-2.7-2.6-3.9-4.7-3.9c-2,0-4.2,1.3-4.6,3.9H209.3z"/>
	<path class="st1" d="M218.8,32.2h5.5v2.5c1-1.5,2.9-3.2,6.1-3.2c1.7,0,4.3,0.5,5.8,2.4c1.4,1.7,1.5,3.6,1.5,5.5v12.3h-5.5V41.1
		c0-1.1,0-2.8-1-3.9c-0.9-0.9-2-1-2.6-1c-1.4,0-2.6,0.5-3.4,1.7c-0.8,1.3-0.9,2.7-0.9,3.8v10h-5.5V32.2z"/>
	<path class="st1" d="M257.8,38.2c-1.2-1.1-2.6-1.7-4.5-1.7c-3.7,0-5.5,2.7-5.5,5.5c0,3.2,2.4,5.6,5.7,5.6c1.2,0,2.9-0.4,4.4-1.7
		v5.4c-1.1,0.5-2.8,1.2-5.1,1.2c-3.1,0-5.8-1.2-7.6-2.9c-1.5-1.4-3.1-3.9-3.1-7.5c0-3.4,1.4-6.2,3.4-8c2.4-2.1,5.2-2.5,7.1-2.5
		c2,0,3.7,0.4,5.3,1.2V38.2z"/>
	<path class="st1" d="M268.7,48.9l-9.3-16.7h6.4l6.1,11.2l5.4-11.2h6.3l-15.8,30.1h-6.3L268.7,48.9z"/>
</g>
<path class="st2" d="M44.8,6.1c-19.7,0-35.7,16-35.7,35.7s16,35.7,35.7,35.7c19.7,0,35.7-16,35.7-35.7S64.5,6.1,44.8,6.1z
	 M44.8,16.3c4.3,0,7.7,3.5,7.7,7.7c0,4.3-3.5,7.7-7.7,7.7c-4.3,0-7.7-3.5-7.7-7.7C37.1,19.7,40.6,16.3,44.8,16.3z M63.7,46H51.1
	h-1.7v15.9c0,3-1.2,5.5-4,5.8c0,0,0.9,0,0.9,0c-0.1,0-1.3,0-1.4,0h0c-0.2,0,0.6,0,0.4,0c-2.8-0.3-5-2.8-5-5.8V46h-3.7H26
	c-3,0-5.4-1.5-5.4-4.6c0-3.1,2.4-4.6,5.4-4.6h18.8h18.8c3,0,5.4,1.5,5.4,4.6C69.1,44.4,66.6,46,63.7,46z"/>
</svg>
